# xmcd CD database file
#
# Track frame offsets:
#	150
#	13347
#	38759
#	59385
#	81704
#	101231
#	115815
#	134074
#	153624
#	175902
#	202227
#	221015
#
# Disc length: 3177 seconds
#
# Revision: 0
# Processed by: cddbd v1.5.2PL0 Copyright (c) Steve Scherf et al.
# Submitted via: CDex 1.70beta2
#
DISCID=be0c670c
DTITLE=Chris Botti - Italia
DYEAR=2007
DGENRE=Jazz
TTITLE0=Once Upon A Time In America
TTITLE1=Italia
TTITLE2=Venice
TTITLE3=The Very Thought Of You
TTITLE4=The Mission - Gabriale's Oboe
TTITLE5=I've Growm Accoustomed To Her Face
TTITLE6=Caruso
TTITLE7=The Way You Look Tonight
TTITLE8=It Never Entered My Mind
TTITLE9=Ave Maria
TTITLE10=Estate
TTITLE11=Turandot/Nessun Dorma
EXTD=YEAR: 2007
EXTT0=
EXTT1=
EXTT2=
EXTT3=
EXTT4=
EXTT5=
EXTT6=
EXTT7=
EXTT8=
EXTT9=
EXTT10=
EXTT11=
PLAYORDER=
